# xmcd CD database file
#
# Track frame offsets:
#	183
#	16878
#	40568
#	63543
#	83240
#	109458
#	126158
#	148625
#	165840
#	185530
#	208903
#	246973
#
# Disc length: 3468 seconds
#
# Revision: 0
# Processed by: cddbd v1.5PL3 Copyright (c) Steve Scherf et al.
# Submitted via: CDex 1.51
#
DISCID=a50d8a0c
DTITLE=Bill Perkins and Frank Strazzeri - Warm Moods
DYEAR=1900
DGENRE=Jazz
TTITLE0=Ceora
TTITLE1=Dewey Square
TTITLE2=Warm Valencian Nights
TTITLE3=For Sal
TTITLE4=Sweet Lorraine
TTITLE5=You Know I Care
TTITLE6=Lavender Dreams
TTITLE7=Scrapple From The Apple
TTITLE8=Harlem Nocturne
TTITLE9=Long Ago
TTITLE10=Willow Weep For Me
TTITLE11=Yesterdays Gardenias
EXTD=
EXTT0=
EXTT1=
EXTT2=
EXTT3=
EXTT4=
EXTT5=
EXTT6=
EXTT7=
EXTT8=
EXTT9=
EXTT10=
EXTT11=
PLAYORDER=
